# xmcd
#
# Track frame offsets: 
#        150
#        23980
#        39207
#        62217
#        73872
#        89532
#        107477
#        127935
#        154767
#        171005
#        177322
#        194270
#        215907
#        231930
#
# Disc length: 3310 seconds
#
# Revision: 0
# Processed by: cddbd v1.5.2PL0 Copyright (c) Steve Scherf et al.
# Submitted via: ExactAudioCopy v0.99pb4
#
DISCID=c30cec0e
DTITLE=Heavenly Blues - Heavenly Blues
DYEAR=1992
DGENRE=Blues
TTITLE0=Fire and Brimstones Blues - David Payton
TTITLE1=Lost Ship - Larry Howard
TTITLE2=Sooner Or Later/ Toni Rossi
TTITLE3=Bluesman - Q-Stones
TTITLE4=I Serve A Risen Savior - Bryn Haworth
TTITLE5=Carry Your Brother - Larry Howard
TTITLE6=Behind The Bars - Q-Stone
TTITLE7=Amazing Grace - John Amato
TTITLE8=Cool Rain - Larry Howard
TTITLE9=Zack's Blues - Q-Stone
TTITLE10=I Got Wise - David Payton
TTITLE11=Is This Love - Bryn Haworth
TTITLE12=How Long? - Buddy Greene
TTITLE13=Everybody Wants To Go To Heaven - Larry Howard
EXTD=
EXTT0=
EXTT1=
EXTT2=
EXTT3=
EXTT4=
EXTT5=
EXTT6=
EXTT7=
EXTT8=
EXTT9=
EXTT10=
EXTT11=
EXTT12=
EXTT13=
PLAYORDER=
